# xmcd
#
# Track frame offsets: 
#        150
#        9583
#        20269
#        31153
#        42359
#        53088
#        64271
#        76134
#        86958
#        100216
#        111718
#        123433
#        135735
#        150737
#        162985
#        171460
#        182134
#        195195
#        206485
#        217690
#        230637
#        240936
#        253315
#        262405
#        274778
#        285310
#        296736
#        303103
#        308381
#
# Disc length: 4317 seconds
#
# Revision: 2
# Processed by: cddbd v1.5.2PL0 Copyright (c) Steve Scherf et al.
# Submitted via: ExactAudioCopy v1.1
#
DISCID=9910db1d
DTITLE=Various Artist - Dreamboats and Petticoats D - At The Hop CD2
DYEAR=2013
DGENRE=Rock and Roll
TTITLE0=What Do Want To Make Those Eyes At Me For - Ford, Emile
TTITLE1=Papa Oom Mow Wow - Rivingtons, The
TTITLE2=Mean Woman Blues - Orbison, Roy
TTITLE3=Peggy Sue - Holly, Buddy
TTITLE4=Ruby Baby - Drifters, The
TTITLE5=Such A Night - Drifters, The
TTITLE6=You Got What It Takes - Johnson, Marv
TTITLE7=Barbara Ann - Regents, The
TTITLE8=Earth Angel - Penguins
TTITLE9=Teenager In Love - Dion
TTITLE10=Mister Sandman - Four Aces, The
TTITLE11=To The Aisle - Five Satins, The
TTITLE12=I Only Have Eyes For You - Flamingoes, The
TTITLE13=You Belong To Me - Duprees, The
TTITLE14=Love Potion No 9 - Clovers, The
TTITLE15=Three Steps To Heaven - Cochran, Eddie
TTITLE16=Rink-A-Din-Ki-Do - Edsels, The
TTITLE17=Talk About My Baby - Impressions, The
TTITLE18=Hushabye - Mystics, The
TTITLE19=Do You Love Me - Contours, The
TTITLE20=Story Untold - Nutmegs, The
TTITLE21=Chapel Of Love - Dixie Cups, The
TTITLE22=Remember Then - Earls, The
TTITLE23=Smokey Joe's Cafe - Robins, The
TTITLE24=Will You Come Back My Love - Wrens, The
TTITLE25=Crying Time Again - Bobby and The Conquests
TTITLE26=Poetry In Motion - Dreamboats Cast **
TTITLE27=Donna - Dreamboats Cast **
TTITLE28=At The Hop - Dreamboats Cast **
EXTD=
EXTT0=
EXTT1=
EXTT2=
EXTT3=
EXTT4=
EXTT5=
EXTT6=
EXTT7=
EXTT8=
EXTT9=
EXTT10=
EXTT11=
EXTT12=
EXTT13=
EXTT14=
EXTT15=
EXTT16=
EXTT17=
EXTT18=
EXTT19=
EXTT20=
EXTT21=
EXTT22=
EXTT23=
EXTT24=
EXTT25=
EXTT26=
EXTT27=
EXTT28=
PLAYORDER=
